PathFileType	4	(X/Y/Z)	/tmp/tmpiz60ez2f/Subject7/MarkerData/Take_2_segment_4.trc
DataRate	CameraRate	NumFrames	NumMarkers	Units	OrigDataRate	OrigDataStartFrame	OrigNumFrames
50.003	50.003	8	39	m	50.003	0	2000
Frame#	Time	C7			CLAV			LANK			LASI			LBHD			LELB			LFHD			LFIN			LFRM			LHEE			LKNE			LPSI			LSHO			LTHI			LTIB			LTOE			LUPA			LWRA			LWRB			RANK			RASI			RBAK			RBHD			RELB			RFHD			RFIN			RFRM			RHEE			RKNE			RPSI			RSHO			RTHI			RTIB			RTOE			RUPA			RWRA			RWRB			STRN			T10		
		X1	Y1	Z1	X2	Y2	Z2	X3	Y3	Z3	X4	Y4	Z4	X5	Y5	Z5	X6	Y6	Z6	X7	Y7	Z7	X8	Y8	Z8	X9	Y9	Z9	X10	Y10	Z10	X11	Y11	Z11	X12	Y12	Z12	X13	Y13	Z13	X14	Y14	Z14	X15	Y15	Z15	X16	Y16	Z16	X17	Y17	Z17	X18	Y18	Z18	X19	Y19	Z19	X20	Y20	Z20	X21	Y21	Z21	X22	Y22	Z22	X23	Y23	Z23	X24	Y24	Z24	X25	Y25	Z25	X26	Y26	Z26	X27	Y27	Z27	X28	Y28	Z28	X29	Y29	Z29	X30	Y30	Z30	X31	Y31	Z31	X32	Y32	Z32	X33	Y33	Z33	X34	Y34	Z34	X35	Y35	Z35	X36	Y36	Z36	X37	Y37	Z37	X38	Y38	Z38	X39	Y39	Z39

1	160.02	0.666965	1.30595	0.054989	0.640146	1.21104	-0.0610468	0.483241	0.090845	0.228216	0.53904	0.785071	0.0510598	0.566532	1.45202	0.0450619	0.419927	1.2422	-0.190201	0.608461	1.47759	-0.136324	0.70023	1.32641	-0.390882	0.511395	1.29047	-0.309417	0.56532	0.0365065	0.293518	0.402324	0.41679	0.0356877	0.591925	0.834591	0.18642	0.506675	1.28195	0.0368094	0.439409	0.584313	0.0524757	0.424976	0.259048	0.144791	0.446827	0.0312733	0.0517256	0.429214	1.23376	-0.0630784	0.656833	1.25255	-0.3763	0.619214	1.33103	-0.395907	1.14724	0.0806495	-0.179948	0.788136	0.800437	-0.0557515	0.77276	1.17504	0.10692	0.669224	1.4567	0.0593621	0.984154	1.07075	-0.204691	0.706567	1.48384	-0.103934	1.08749	0.90175	-0.454527	1.05491	0.978815	-0.295799	1.07723	0.00563503	-0.167061	1.01248	0.466965	-0.101389	0.83508	0.849123	0.109418	0.803706	1.26686	-0.0731611	0.911742	0.669483	-0.07062	1.10326	0.261616	-0.128923	1.17913	0.132399	-0.363772	0.918916	1.13488	-0.155199	1.02711	0.858395	-0.41113	1.10933	0.88984	-0.39476	0.615637	1.0451	-0.088273	0.696663	0.977407	0.161941
2	160.04	0.66386	1.30582	0.057486	0.634903	1.211	-0.0580455	0.483189	0.0906005	0.228397	0.535971	0.785042	0.0551022	0.563342	1.45159	0.04965	0.411777	1.24242	-0.182959	0.602077	1.47807	-0.132354	0.688096	1.32822	-0.387221	0.500981	1.29151	-0.303431	0.565447	0.0364798	0.293399	0.400347	0.417031	0.0376365	0.590599	0.834435	0.189876	0.503257	1.28184	0.0423187	0.437204	0.58442	0.0554748	0.423872	0.258891	0.145854	0.446764	0.0312771	0.0518286	0.423634	1.23384	-0.05604	0.645029	1.25383	-0.373387	0.607138	1.33264	-0.3916	1.14604	0.0811184	-0.179835	0.783361	0.800561	-0.0550295	0.770404	1.17502	0.107879	0.666268	1.45622	0.0621937	0.976628	1.06796	-0.205426	0.700746	1.48416	-0.101523	1.07614	0.895823	-0.454585	1.04563	0.974757	-0.296428	1.0773	0.00453035	-0.166109	1.00929	0.466563	-0.100175	0.832667	0.84904	0.109607	0.798574	1.26652	-0.0730479	0.907521	0.668744	-0.0702569	1.10133	0.26184	-0.128186	1.17444	0.13489	-0.363634	0.912328	1.13288	-0.155866	1.01568	0.853583	-0.410174	1.09835	0.884445	-0.395	0.610039	1.04489	-0.084735	0.69501	0.977238	0.164008
3	160.06	0.660868	1.30567	0.0599864	0.629744	1.21092	-0.0550274	0.48313	0.0904445	0.228555	0.532991	0.784997	0.0591624	0.560301	1.45113	0.05425	0.40376	1.24254	-0.175594	0.595754	1.47851	-0.128344	0.675885	1.3299	-0.383514	0.490608	1.29239	-0.297378	0.565532	0.0364469	0.293312	0.39849	0.417265	0.0395212	0.589431	0.834233	0.193298	0.499978	1.28169	0.0478346	0.435142	0.584506	0.0584032	0.42283	0.258761	0.1469	0.446725	0.031278	0.0519239	0.418227	1.23384	-0.0489481	0.633303	1.2551	-0.370286	0.595017	1.3341	-0.387267	1.14491	0.081553	-0.179834	0.778615	0.800642	-0.0543261	0.76814	1.17496	0.108772	0.663443	1.45571	0.0650027	0.96904	1.06516	-0.206235	0.694984	1.48443	-0.0991181	1.06459	0.88997	-0.454723	1.03623	0.970716	-0.297139	1.07754	0.00358958	-0.165235	1.00616	0.466181	-0.0991061	0.830335	0.848923	0.109708	0.793466	1.26614	-0.0729489	0.903356	0.668019	-0.0699969	1.09944	0.262077	-0.127571	1.16967	0.13722	-0.36353	0.905692	1.13087	-0.156561	1.00404	0.848843	-0.409293	1.08718	0.879077	-0.395339	0.604556	1.04463	-0.0810948	0.693479	0.977033	0.166018
4	160.08	0.65799	1.3055	0.0624805	0.624664	1.2108	-0.0520013	0.483049	0.0903645	0.228699	0.530106	0.784944	0.063237	0.557413	1.45065	0.0588639	0.395875	1.24254	-0.168106	0.589507	1.47892	-0.124279	0.66359	1.33146	-0.379752	0.480277	1.29307	-0.291257	0.565583	0.0364095	0.293251	0.396737	0.417505	0.0413706	0.588426	0.834001	0.196678	0.496841	1.28151	0.0533547	0.433214	0.584583	0.061283	0.421842	0.258661	0.147943	0.446705	0.0312782	0.0520103	0.412993	1.23375	-0.0418033	0.621688	1.25639	-0.366958	0.582843	1.33541	-0.3829	1.14386	0.0819479	-0.179981	0.773938	0.800664	-0.053642	0.765968	1.17486	0.109578	0.660755	1.4552	0.067793	0.96139	1.06237	-0.207128	0.689288	1.48467	-0.0967218	1.05281	0.88418	-0.45495	1.02672	0.966702	-0.297942	1.07798	0.00284745	-0.164475	1.00307	0.465814	-0.0981904	0.828094	0.848779	0.109713	0.788376	1.26575	-0.0728792	0.899249	0.667305	-0.0698356	1.0976	0.26233	-0.127103	1.16479	0.139376	-0.363492	0.899006	1.12886	-0.157301	0.992206	0.844163	-0.408474	1.0758	0.873742	-0.395782	0.599183	1.04433	-0.0773492	0.69208	0.976798	0.167958
5	160.1	0.655222	1.30531	0.0649535	0.619656	1.21067	-0.0489776	0.482932	0.0903262	0.228847	0.527331	0.784888	0.0673112	0.554687	1.45017	0.0634938	0.38812	1.24243	-0.160496	0.583361	1.47928	-0.120141	0.651208	1.3329	-0.375926	0.469988	1.29357	-0.285062	0.565612	0.0363701	0.293208	0.395057	0.417769	0.0432336	0.58759	0.833753	0.199999	0.493848	1.28131	0.058875	0.431408	0.584669	0.0641545	0.420892	0.258589	0.149006	0.446695	0.0312804	0.0520876	0.407932	1.23358	-0.0346063	0.610217	1.25771	-0.363369	0.570611	1.33661	-0.378483	1.1429	0.0823024	-0.180322	0.76939	0.800606	-0.0529694	0.763886	1.17473	0.110263	0.658215	1.45468	0.0705669	0.953671	1.0596	-0.208125	0.683666	1.48486	-0.0943388	1.04079	0.878436	-0.455274	1.01709	0.962733	-0.298856	1.07862	0.00230398	-0.163853	1.00001	0.465451	-0.0974405	0.825953	0.848612	0.109621	0.78329	1.26535	-0.0728557	0.895203	0.666594	-0.0697686	1.0958	0.262602	-0.126816	1.1597	0.14133	-0.36357	0.892263	1.12686	-0.158115	0.980197	0.83953	-0.407693	1.06422	0.868451	-0.396337	0.593914	1.04403	-0.0735077	0.690823	0.97654	0.169814
6	160.12	0.652555	1.30509	0.0673948	0.614719	1.21053	-0.0459577	0.482778	0.0902862	0.229021	0.524687	0.784829	0.0713632	0.55213	1.4497	0.0681389	0.380499	1.24222	-0.152762	0.577334	1.4796	-0.115918	0.63874	1.33424	-0.372026	0.459744	1.2939	-0.278778	0.565631	0.0363315	0.293174	0.393418	0.418069	0.0451554	0.586921	0.833502	0.203241	0.491006	1.28108	0.0643917	0.429704	0.584776	0.0670586	0.419966	0.258543	0.150109	0.446688	0.0312862	0.0521563	0.403043	1.23334	-0.0273566	0.598889	1.25904	-0.35952	0.558317	1.3377	-0.373994	1.14199	0.0826259	-0.180875	0.765024	0.800449	-0.0522857	0.76189	1.17456	0.110809	0.655831	1.45417	0.0733215	0.94587	1.05687	-0.209255	0.678121	1.485	-0.0919719	1.02849	0.872729	-0.455698	1.00734	0.958822	-0.299904	1.07944	0.00190671	-0.163354	0.996974	0.465085	-0.0968688	0.823917	0.848423	0.109438	0.778195	1.26495	-0.0728859	0.891215	0.665873	-0.0697975	1.09404	0.262893	-0.126742	1.15433	0.143056	-0.363806	0.885459	1.12489	-0.159034	0.968026	0.834936	-0.406924	1.05244	0.863217	-0.397008	0.588741	1.04375	-0.0696008	0.689714	0.976265	0.171578
7	160.14	0.649979	1.30484	0.0697991	0.609862	1.21039	-0.0429297	0.482596	0.0902126	0.229231	0.5222	0.784761	0.0753753	0.549747	1.44925	0.0727937	0.373021	1.24193	-0.144896	0.571438	1.47985	-0.111615	0.626195	1.33548	-0.368049	0.449547	1.29409	-0.27238	0.565651	0.036296	0.293139	0.391801	0.41841	0.0471591	0.586414	0.833249	0.206392	0.488322	1.28081	0.0699017	0.428091	0.584907	0.0700222	0.419058	0.258519	0.151259	0.446675	0.0312959	0.052216	0.398329	1.23303	-0.020052	0.587641	1.26035	-0.355459	0.545961	1.3387	-0.369404	1.14111	0.0829349	-0.181629	0.760875	0.800179	-0.051555	0.759983	1.17436	0.111211	0.653606	1.45365	0.0760469	0.937971	1.05419	-0.210545	0.672654	1.48508	-0.0896227	1.01593	0.867063	-0.45622	0.997445	0.954977	-0.301101	1.08039	0.00158702	-0.16295	0.993969	0.464709	-0.0964869	0.821985	0.848205	0.109172	0.773086	1.26454	-0.0729664	0.887281	0.665133	-0.0699326	1.09235	0.263204	-0.126896	1.14866	0.14453	-0.364215	0.878586	1.12295	-0.160078	0.955701	0.830385	-0.406153	1.04046	0.858052	-0.397797	0.583661	1.04348	-0.0656734	0.688757	0.975971	0.173252
8	160.16	0.647491	1.30455	0.0721644	0.605104	1.21022	-0.0398716	0.482398	0.0900969	0.229479	0.519885	0.784676	0.0793415	0.547539	1.44882	0.077448	0.365696	1.24155	-0.136887	0.565671	1.48004	-0.107245	0.613584	1.33661	-0.363986	0.439396	1.29418	-0.265835	0.565679	0.0362639	0.293091	0.390203	0.418786	0.0492398	0.586069	0.832989	0.209449	0.485811	1.28051	0.0754036	0.426567	0.585058	0.0730487	0.418173	0.258515	0.152451	0.446651	0.031309	0.0522652	0.393797	1.23266	-0.0126878	0.576358	1.26158	-0.351278	0.533548	1.33961	-0.364679	1.14019	0.0832455	-0.182555	0.756949	0.79979	-0.0507429	0.758171	1.17414	0.111482	0.651537	1.45314	0.0787273	0.929962	1.05154	-0.212006	0.667259	1.4851	-0.0872936	1.00311	0.861465	-0.45683	0.987402	0.951202	-0.302452	1.08139	0.00129627	-0.162618	0.991004	0.464325	-0.0963044	0.820154	0.847955	0.108823	0.767967	1.26413	-0.0730875	0.883395	0.664368	-0.0701883	1.0907	0.263533	-0.127282	1.14269	0.14574	-0.364785	0.871641	1.12104	-0.161246	0.943222	0.825898	-0.40539	1.02828	0.852968	-0.398702	0.578675	1.04324	-0.0617712	0.687949	0.975655	0.174842
